HIERARCHY
ROOT Hips
{
  OFFSET 54.7177 83.8969 8.4833
  CHANNELS 6 Xposition Yposition Zposition Zrotation Xrotation Yrotation
  JOINT spine
  {
    OFFSET 0 5.95438 0.342407
    CHANNELS 3 Zrotation Xrotation Yrotation
    JOINT spine1
    {
      OFFSET 0 8.85602 0
      CHANNELS 3 Zrotation Xrotation Yrotation
      JOINT spine2
      {
        OFFSET 0 8.48567 0
        CHANNELS 3 Zrotation Xrotation Yrotation
        JOINT Neck
        {
          OFFSET 0 21.7863 1.0387
          CHANNELS 3 Zrotation Xrotation Yrotation
          JOINT Head
          {
            OFFSET 0 6.5822 0
            CHANNELS 3 Zrotation Xrotation Yrotation
            End Site
            {
              OFFSET 0 15.9326 -5.25436
            }
          }
        }
        JOINT RightShoulder
        {
          OFFSET -3.57307 9.16386 -0.497525
          CHANNELS 3 Zrotation Xrotation Yrotation
          JOINT RightArm
          {
            OFFSET 0 12.0192 0
            CHANNELS 3 Zrotation Xrotation Yrotation
            JOINT RightArmRoll
            {
              OFFSET 0 6.06755 0
              CHANNELS 3 Zrotation Xrotation Yrotation
              JOINT RightForeArm
              {
                OFFSET 0 17.6726 0
                CHANNELS 3 Zrotation Xrotation Yrotation
                JOINT RightForeArmRoll
                {
                  OFFSET 0 6.80872 0
                  CHANNELS 3 Zrotation Xrotation Yrotation
                  JOINT RightHand
                  {
                    OFFSET 0 13.6636 0
                    CHANNELS 3 Zrotation Xrotation Yrotation
                    End Site
                    {
                      OFFSET 0 0 0
                    }
                  }
                }
              }
            }
          }
        }
        JOINT LeftShoulder
        {
          OFFSET 3.57307 9.16386 -0.497525
          CHANNELS 3 Zrotation Xrotation Yrotation
          JOINT LeftArm
          {
            OFFSET 0 12.0192 0
            CHANNELS 3 Zrotation Xrotation Yrotation
            JOINT LeftArmRoll
            {
              OFFSET 0 6.06754 0
              CHANNELS 3 Zrotation Xrotation Yrotation
              JOINT LeftForeArm
              {
                OFFSET 0 17.6726 0
                CHANNELS 3 Zrotation Xrotation Yrotation
                JOINT LeftForeArmRoll
                {
                  OFFSET 0 6.80872 0
                  CHANNELS 3 Zrotation Xrotation Yrotation
                  JOINT LeftHand
                  {
                    OFFSET 0 13.6636 0
                    CHANNELS 3 Zrotation Xrotation Yrotation
                    End Site
                    {
                      OFFSET 0 0 0
                    }
                  }
                }
              }
            }
          }
        }
      }
    }
  }
  JOINT RightUpLeg
  {
    OFFSET -5.27774 -0.967797 -0.811858
    CHANNELS 3 Zrotation Xrotation Yrotation
    JOINT RightUpLegRoll
    {
      OFFSET 0 16.0214 0
      CHANNELS 3 Zrotation Xrotation Yrotation
      JOINT RightLeg
      {
        OFFSET 0 -19.8401 0
        CHANNELS 3 Zrotation Xrotation Yrotation
        JOINT RightLegRoll
        {
          OFFSET 0 19.905 0
          CHANNELS 3 Zrotation Xrotation Yrotation
          JOINT RightFoot
          {
            OFFSET 0 16.5675 0
            CHANNELS 3 Zrotation Xrotation Yrotation
            JOINT RightToeBase
            {
              OFFSET 0 13.8496 0
              CHANNELS 3 Zrotation Xrotation Yrotation
              End Site
              {
                OFFSET 0.00587034 6.70727 -0.773117
              }
            }
          }
        }
      }
    }
  }
  JOINT LeftUpLeg
  {
    OFFSET 5.27774 -0.967797 -0.811858
    CHANNELS 3 Zrotation Xrotation Yrotation
    JOINT LeftUpLegRoll
    {
      OFFSET 0 16.0215 0
      CHANNELS 3 Zrotation Xrotation Yrotation
      JOINT LeftLeg
      {
        OFFSET 0 19.84 0
        CHANNELS 3 Zrotation Xrotation Yrotation
        JOINT LeftLegRoll
        {
          OFFSET 0 20.089 0
          CHANNELS 3 Zrotation Xrotation Yrotation
          JOINT LeftFoot
          {
            OFFSET 0 16.3835 0
            CHANNELS 3 Zrotation Xrotation Yrotation
            JOINT LeftToeBase
            {
              OFFSET 0 13.8496 0
              CHANNELS 3 Zrotation Xrotation Yrotation
              End Site
              {
                OFFSET -0.0263083 6.70728 -0.773117
              }
            }
          }
        }
      }
    }
  }
}
MOTION
Frames: 12
Frame Time: 0.00208333
53.4392 88.5115 11.6805 4.42453 1.98875 1.38112 -0.931489 -1.46121 0.0922556 -1.8608 1.07749 0.283213 -1.86543 2.72201 0.314461 -16.3958 -9.69386 -6.85793 21.2223 7.41419 -8.9493 42.5082 -11.2453 -7.2327 16.1965 9.60096 71.2151 -3.18055e-015 9.19379e-015 1.59028e-014 -4.10135 31.9928 -1.04839 4.66475e-006 -1.9724e-006 -3 8.0301 -4.95138 0.697623 -21.5083 -12.3826 9.01701 -27.9506 21.8979 -58.4863 -3.75679e-006 -9.19249e-007 -8.62552e-007 4.04144 28.0563 1.18576 -1.19763e-006 2.77872e-006 2.99999 -8.03009 -4.95138 -0.697629 160.542 7.09889 9.02872 180 7.01477e-015 178.652 -177.334 12.7828 179.058 -3.00586e-007 -2.57473e-006 0.0297374 -17.9479 66.7464 18.5451 8.13397 25.1951 -3.52825 -171.322 6.32542 -0.363075 4.54188e-006 -4.6773e-006 -1.38476 3.80994 -9.37352 0.49448 -6.34484e-007 4.09912e-006 0.418442 16.5789 64.11 -16.7528 -8.13211 25.1676 3.556 
53.5158 88.7767 11.759 4.52753 1.85638 1.41335 -0.982842 -1.42359 0.0852714 -1.96371 1.15258 0.274637 -1.96835 2.79706 0.307634 -15.4424 -10.138 -6.93558 20.3635 7.83639 -8.90794 43.3553 -11.2219 -7.20514 16.557 9.67928 70.8043 1.59028e-015 2.73329e-015 3.18055e-015 -4.08445 31.4814 -1.06824 4.66475e-006 -1.9724e-006 -3 8.0301 -4.95138 0.697623 -21.4435 -12.3916 9.03419 -29.5995 21.7966 -57.364 -3.75679e-006 -9.19249e-007 -8.62552e-007 4.06645 28.9809 1.155 -1.19763e-006 2.77872e-006 2.99999 -8.03009 -4.95138 -0.697629 160.616 6.79723 9.00942 180 7.01479e-015 178.659 -177.389 12.4619 179.09 -3.00586e-007 -2.57473e-006 0.0331814 -17.9565 66.7982 18.5845 8.1353 25.2147 -3.50714 -171.622 5.96902 -0.193957 4.54188e-006 -4.6773e-006 -1.38029 3.82087 -8.92354 0.468815 -6.34484e-007 4.09912e-006 0.426054 16.5267 64.0966 -16.7476 -8.13441 25.2015 3.52041 
53.4831 89.0577 11.7512 4.61601 1.74041 1.44157 -1.02928 -1.39056 0.0789795 -2.05677 1.21852 0.266987 -2.06141 2.86296 0.301564 -14.5496 -10.5259 -6.99886 19.5667 8.20229 -8.86042 44.1399 -11.199 -7.17422 16.9725 9.77152 70.3527 -2.48481e-015 -4.82053e-015 9.54166e-015 -4.06852 30.9649 -1.08797 4.66475e-006 -1.9724e-006 -3 8.0301 -4.95138 0.697623 -21.4116 -12.3887 9.03431 -31.1681 21.6966 -56.2743 -3.75679e-006 -9.19249e-007 -8.62552e-007 4.08874 29.7753 1.12824 -1.19763e-006 2.77872e-006 2.99999 -8.03009 -4.95138 -0.697629 160.708 6.52507 8.98226 180 7.01481e-015 178.665 -177.442 12.176 179.12 -3.00586e-007 -2.57474e-006 0.0347942 -17.9589 66.8368 18.614 8.13617 25.2278 -3.49294 -171.899 5.65047 -0.0402979 4.54188e-006 -4.6773e-006 -1.37491 3.82503 -8.52826 0.445359 -6.34484e-007 4.09912e-006 0.433113 16.4802 64.0845 -16.7429 -8.13593 25.2243 3.49648 
53.5356 89.2792 11.7566 4.68738 1.64404 1.46486 -1.06991 -1.36313 0.0735167 -2.13819 1.27325 0.260452 -2.14284 2.91766 0.296408 -13.7291 -10.848 -7.04492 18.8447 8.50421 -8.80612 44.8538 -11.1748 -7.13677 17.4482 9.87807 69.8563 6.55989e-015 -1.97791e-014 1.27222e-014 -4.05367 30.4428 -1.10761 4.66475e-006 -1.9724e-006 -3 8.0301 -4.95138 0.697623 -21.4199 -12.3714 9.01353 -32.6412 21.6078 -55.2254 -3.75679e-006 -9.19249e-007 -8.62552e-007 4.1071 30.4131 1.10641 -1.19763e-006 2.77872e-006 2.99999 -8.03009 -4.95138 -0.697629 160.82 6.28659 8.94649 180 7.01482e-015 178.671 -177.494 11.9277 179.147 -3.00586e-007 -2.57474e-006 0.0339653 -17.9531 66.8584 18.6309 8.13649 25.2327 -3.48775 -172.15 5.37488 0.0945876 4.54188e-006 -4.6773e-006 -1.36853 3.82041 -8.1929 0.424006 -6.34484e-007 4.09912e-006 0.439839 16.4398 64.0725 -16.738 -8.13649 25.2327 3.48772 
53.527 89.5522 11.7784 4.74468 1.56211 1.48474 -1.10652 -1.33949 0.0686111 -2.21155 1.32043 0.254688 -2.21621 2.9648 0.291884 -12.9468 -11.1206 -7.07528 18.1659 8.75133 -8.74125 45.511 -11.155 -7.10119 17.9609 10.0082 69.3167 3.97569e-015 -6.55989e-015 -0 -4.03868 29.8704 -1.12871 4.66475e-006 -1.9724e-006 -3 8.0301 -4.95138 0.697623 -21.4534 -12.3439 8.97789 -34.0567 21.5251 -54.1991 -3.75679e-006 -9.19249e-007 -8.62552e-007 4.12268 30.947 1.08774 -1.19763e-006 2.77872e-006 2.99999 -8.03009 -4.95138 -0.697629 160.952 6.07479 8.90074 180 7.01484e-015 178.677 -177.543 11.7154 179.17 -3.00586e-007 -2.57474e-006 0.0315974 -17.941 66.8676 18.6386 8.13649 25.2327 -3.48775 -172.382 5.13826 0.216828 4.54188e-006 -4.6773e-006 -1.36094 3.8118 -7.91941 0.405758 -6.34484e-007 4.09912e-006 0.445432 16.4064 64.0652 -16.7356 -8.13649 25.2327 3.48772 
53.5769 89.7542 11.744 4.7931 1.48714 1.50333 -1.14145 -1.31711 0.0639054 -2.28155 1.36511 0.249227 -2.28623 3.00944 0.287604 -12.1635 -11.3663 -7.09414 17.4924 8.95928 -8.6636 46.1311 -11.1462 -7.07735 18.4881 10.1682 68.7395 1.98785e-015 -5.06901e-015 6.36111e-015 -4.0227 29.2156 -1.15241 4.66475e-006 -1.9724e-006 -3 8.0301 -4.95138 0.697623 -21.4928 -12.3123 8.93629 -35.4612 21.4373 -53.1722 -3.75679e-006 -9.19249e-007 -8.62552e-007 4.13738 31.4459 1.0699 -1.19763e-006 2.77872e-006 2.99999 -8.03009 -4.95138 -0.697629 161.1 5.87969 8.8448 180 7.01485e-015 178.682 -177.586 11.5345 179.19 -3.00586e-007 -2.57474e-006 0.029058 -17.9264 66.872 18.6426 8.13649 25.2327 -3.48775 -172.604 4.93179 0.334821 4.54188e-006 -4.67731e-006 -1.35213 3.80484 -7.70315 0.391432 -6.34484e-007 4.09912e-006 0.44905 16.3805 64.0674 -16.7388 -8.13649 25.2327 3.48772 
53.5353 90.014 11.7782 4.83325 1.41885 1.5207 -1.17465 -1.29596 0.0594079 -2.34808 1.40733 0.244068 -2.35277 3.05162 0.283566 -11.3836 -11.5855 -7.10267 16.8277 9.12999 -8.57488 46.7143 -11.1474 -7.06419 19.036 10.3536 68.1264 2.18663e-015 1.88845e-015 6.36111e-015 -4.0063 28.4964 -1.17804 4.66475e-006 -1.9724e-006 -3 8.0301 -4.95138 0.697623 -21.5389 -12.2767 8.88915 -36.8522 21.3449 -52.1463 -3.75679e-006 -9.19249e-007 -8.62552e-007 4.15112 31.9081 1.05301 -1.19763e-006 2.77872e-006 2.99999 -8.03009 -4.95138 -0.697629 161.264 5.70101 8.77969 180 7.01487e-015 178.688 -177.625 11.3839 179.208 -3.00586e-007 -2.57474e-006 0.0264335 -17.9098 66.8725 18.6437 8.13649 25.2327 -3.48775 -172.819 4.75334 0.448644 4.54188e-006 -4.67731e-006 -1.34228 3.79889 -7.53951 0.380658 -6.34484e-007 4.09912e-006 0.45085 16.3613 64.0781 -16.7471 -8.13649 25.2327 3.48772 
53.5271 90.2163 11.7445 4.86577 1.35694 1.53689 -1.20605 -1.27602 0.0551269 -2.41102 1.44715 0.239211 -2.41573 3.09139 0.279766 -10.6116 -11.7786 -7.10203 16.1752 9.26541 -8.47685 47.2609 -11.1577 -7.06067 19.6109 10.5595 67.4789 4.96962e-015 2.5842e-015 1.59028e-014 -3.99002 27.7311 -1.20495 4.66475e-006 -1.9724e-006 -3 8.0301 -4.95138 0.697623 -21.5921 -12.2375 8.83689 -38.2278 21.2484 -51.1228 -3.75679e-006 -9.19249e-007 -8.62552e-007 4.1638 32.3316 1.0372 -1.19763e-006 2.77872e-006 2.99999 -8.03009 -4.95138 -0.697629 161.441 5.5385 8.70643 180 7.01488e-015 178.693 -177.659 11.262 179.222 -3.00586e-007 -2.57474e-006 0.0238105 -17.8919 66.8699 18.6425 8.13649 25.2327 -3.48775 -173.026 4.60078 0.558373 4.54188e-006 -4.67731e-006 -1.33154 3.79331 -7.42389 0.373071 -6.34484e-007 4.09912e-006 0.45099 16.3483 64.0964 -16.7598 -8.13649 25.2327 3.48772 
53.519 90.4612 11.7626 4.89126 1.30112 1.55196 -1.2356 -1.25725 0.0510706 -2.47025 1.4846 0.234655 -2.47498 3.12881 0.276203 -9.85183 -11.9461 -7.09344 15.5383 9.36747 -8.37128 47.7713 -11.176 -7.06577 20.2189 10.7811 66.7989 -9.93923e-016 3.47873e-015 1.90833e-014 -3.9743 26.9379 -1.23253 4.66475e-006 -1.9724e-006 -3 8.0301 -4.95138 0.697623 -21.6532 -12.1948 8.77994 -39.5858 21.1487 -50.1031 -3.75679e-006 -9.19249e-007 -8.62552e-007 4.17534 32.7147 1.02257 -1.19763e-006 2.77872e-006 2.99999 -8.03009 -4.95138 -0.697629 161.63 5.39186 8.62602 180 7.0149e-015 178.698 -177.69 11.1677 179.234 -3.00586e-007 -2.57474e-006 0.0212756 -17.8732 66.8651 18.6397 8.13649 25.2327 -3.48774 -173.227 4.47198 0.664079 4.54188e-006 -4.67731e-006 -1.32007 3.7875 -7.35169 0.368309 -6.34484e-007 4.09912e-006 0.449628 16.3407 64.1211 -16.7764 -8.13649 25.2327 3.48772 
53.5306 90.6631 11.7477 4.91035 1.25112 1.56597 -1.26325 -1.23965 0.0472475 -2.52568 1.51976 0.230399 -2.53043 3.16392 0.272875 -9.10888 -12.0885 -7.07807 14.9206 9.43809 -8.25997 48.2459 -11.2013 -7.07844 20.8657 11.0131 66.0878 5.96354e-016 4.37326e-015 1.27222e-014 -3.95953 26.1349 -1.26016 4.66475e-006 -1.9724e-006 -3 8.0301 -4.95138 0.697623 -21.7226 -12.149 8.71871 -40.9243 21.0465 -49.0888 -3.75679e-006 -9.19249e-007 -8.62552e-007 4.18564 33.0555 1.00927 -1.19763e-006 2.77872e-006 2.99999 -8.03009 -4.95138 -0.697629 161.83 5.26086 8.53949 180 7.01491e-015 178.703 -177.719 11.0995 179.243 -3.00586e-007 -2.57474e-006 0.0189155 -17.8544 66.8589 18.6357 8.13649 25.2327 -3.48774 -173.422 4.36479 0.765828 4.54188e-006 -4.67731e-006 -1.30803 3.78089 -7.31829 0.366016 -6.34484e-007 4.09912e-006 0.446922 16.338 64.1514 -16.7963 -8.13649 25.2327 3.48772 
53.5586 90.8616 11.7463 4.92367 1.20663 1.57897 -1.28894 -1.22317 0.0436658 -2.57718 1.55265 0.226442 -2.58194 3.19677 0.269779 -8.38728 -12.2061 -7.05716 14.3256 9.47921 -8.1447 48.6848 -11.2327 -7.09766 21.5573 11.2498 65.3473 -3.57812e-015 8.05078e-015 1.59028e-014 -3.94602 25.3403 -1.28726 4.66475e-006 -1.9724e-006 -3 8.0301 -4.95138 0.697623 -21.801 -12.1003 8.65363 -42.2412 20.9427 -48.0813 -3.75679e-006 -9.19249e-007 -8.62552e-007 4.19462 33.3521 0.997413 -1.19763e-006 2.77872e-006 2.99999 -8.03009 -4.95138 -0.697629 162.04 5.14522 8.44783 180 7.01492e-015 178.707 -177.744 11.0561 179.25 -3.00586e-007 -2.57474e-006 0.0168166 -17.8359 66.8522 18.6314 8.13649 25.2327 -3.48774 -173.611 4.27708 0.863687 4.54188e-006 -4.67731e-006 -1.29558 3.77289 -7.31909 0.365836 -6.34484e-007 4.09912e-006 0.443029 16.3395 64.1862 -16.8189 -8.13649 25.2327 3.48772 
53.5448 91.0504 11.7312 4.93184 1.16738 1.591 -1.31261 -1.20781 0.0403338 -2.62463 1.58334 0.222783 -2.62942 3.22742 0.266912 -7.69157 -12.2994 -7.03193 13.7568 9.49276 -8.0273 49.0884 -11.2693 -7.12237 22.299 11.4853 64.5787 -1.78906e-015 -6.55989e-015 3.18055e-015 -3.93399 24.5723 -1.31323 4.66475e-006 -1.9724e-006 -3 8.0301 -4.95138 0.697623 -21.889 -12.0489 8.58511 -43.5348 20.8382 -47.0819 -3.75679e-006 -9.19249e-007 -8.62552e-007 4.20217 33.6028 0.987136 -1.19764e-006 2.77872e-006 2.99999 -8.03009 -4.95138 -0.697629 162.256 5.04468 8.35207 180 7.01494e-015 178.712 -177.769 11.0362 179.256 -3.00586e-007 -2.57474e-006 0.0150655 -17.8185 66.8459 18.6273 8.13649 25.2327 -3.48774 -173.796 4.20672 0.957716 4.54188e-006 -4.67731e-006 -1.28289 3.76295 -7.34948 0.367416 -6.34484e-007 4.09912e-006 0.438108 16.3446 64.2246 -16.8437 -8.13649 25.2327 3.48772 
